<?xml version="1.0" encoding="UTF-8" standalone="no"?>
<!DOCTYPE svg PUBLIC "-//W3C//DTD SVG 1.1//EN" "http://www.w3.org/Graphics/SVG/1.1/DTD/svg11.dtd">
<svg width="100%" height="100%" viewBox="0 0 750 500" version="1.1" xmlns="http://www.w3.org/2000/svg" xmlns:xlink="http://www.w3.org/1999/xlink" xml:space="preserve" xmlns:serif="http://www.serif.com/" style="fill-rule:evenodd;clip-rule:evenodd;stroke-linejoin:round;stroke-miterlimit:2;">
    <g id="OBJECTS">
        <g>
            <g>
                <clipPath id="_clip1">
                    <rect x="0" y="0" width="750" height="500"/>
                </clipPath>
                <g clip-path="url(#_clip1)">
                    <path d="M-14.608,401.128C-14.608,401.128 68.512,338.028 130.384,352.916C192.255,367.805 192,419.831 282,423.415C372,427 404.352,401.023 581.641,363.276C768.935,323.398 781,401.128 781,401.128L781,516.14L-22.597,509.611L-14.608,401.128Z" style="fill:rgb(216,188,156);fill-rule:nonzero;"/>
                    <g>
                        <path d="M24.535,537.161C24.261,536.909 24.205,536.487 24.418,536.168C52.339,494.522 62.822,464.018 62.925,463.714C63.061,463.312 63.498,463.096 63.9,463.232C64.302,463.369 64.519,463.805 64.382,464.207C64.279,464.512 53.741,495.193 25.696,537.024C25.459,537.377 24.981,537.471 24.628,537.235C24.595,537.212 24.564,537.187 24.535,537.161Z" style="fill:rgb(117,124,107);fill-rule:nonzero;"/>
                        <path d="M40.039,512.377C40.039,512.377 63.111,483.618 69.489,496.523C75.866,509.427 40.039,512.377 40.039,512.377Z" style="fill:rgb(117,124,107);fill-rule:nonzero;"/>
                        <path d="M53.142,488.642C53.142,488.642 76.214,459.883 82.592,472.788C88.97,485.692 53.142,488.642 53.142,488.642Z" style="fill:rgb(117,124,107);fill-rule:nonzero;"/>
                        <path d="M62.412,467.612C62.412,467.612 66.195,430.937 78.553,438.318C90.911,445.699 62.412,467.612 62.412,467.612Z" style="fill:rgb(117,124,107);fill-rule:nonzero;"/>
                        <path d="M42.965,507.859C42.965,507.859 51.005,471.876 36.945,474.959C22.884,478.042 42.965,507.859 42.965,507.859Z" style="fill:rgb(117,124,107);fill-rule:nonzero;"/>
                        <path d="M56.32,482.596C56.32,482.596 64.36,446.613 50.3,449.696C36.24,452.778 56.32,482.596 56.32,482.596Z" style="fill:rgb(117,124,107);fill-rule:nonzero;"/>
                        <path d="M29.025,531.08C29.025,531.08 37.065,495.097 23.005,498.18C8.944,501.263 29.025,531.08 29.025,531.08Z" style="fill:rgb(117,124,107);fill-rule:nonzero;"/>
                    </g>
                    <g>
                        <path d="M507.147,523.901C507.147,523.901 477.167,502.439 489.703,495.364C502.238,488.289 507.147,523.901 507.147,523.901Z" style="fill:rgb(117,124,107);fill-rule:nonzero;"/>
                        <path d="M482.729,512.118C482.729,512.118 452.749,490.656 465.285,483.581C477.821,476.506 482.729,512.118 482.729,512.118Z" style="fill:rgb(117,124,107);fill-rule:nonzero;"/>
                        <path d="M461.224,504.014C461.224,504.014 424.396,502.246 431.09,489.502C437.783,476.759 461.224,504.014 461.224,504.014Z" style="fill:rgb(117,124,107);fill-rule:nonzero;"/>
                    </g>
                    <g>
                        <path d="M804.565,429.609C804.746,429.934 804.669,430.352 804.366,430.589C764.841,461.439 745.36,487.148 745.168,487.404C744.913,487.744 744.431,487.812 744.091,487.558C743.751,487.303 743.682,486.821 743.937,486.481C744.13,486.223 763.718,460.365 803.419,429.377C803.754,429.116 804.238,429.175 804.499,429.51C804.524,429.541 804.546,429.575 804.565,429.609Z" style="fill:rgb(117,124,107);fill-rule:nonzero;"/>
                        <path d="M782.1,448.316C782.1,448.316 751.204,468.436 749.173,454.186C747.142,439.935 782.1,448.316 782.1,448.316Z" style="fill:rgb(117,124,107);fill-rule:nonzero;"/>
                        <path d="M762.243,466.775C762.243,466.775 731.347,486.895 729.316,472.645C727.284,458.394 762.243,466.775 762.243,466.775Z" style="fill:rgb(117,124,107);fill-rule:nonzero;"/>
                        <path d="M746.872,483.86C746.872,483.86 731.83,517.522 722.394,506.652C712.958,495.783 746.872,483.86 746.872,483.86Z" style="fill:rgb(117,124,107);fill-rule:nonzero;"/>
                        <path d="M757.336,471.527C757.336,471.527 738.466,503.202 752.786,504.662C767.107,506.122 757.336,471.527 757.336,471.527Z" style="fill:rgb(117,124,107);fill-rule:nonzero;"/>
                    </g>
                    <g>
                        <path d="M-55.355,298.719C-55.355,298.719 -44.068,277.779 -18.312,265.316C7.444,252.853 16.265,259.734 18.472,263.592C20.679,267.45 19.67,281.519 -7.468,291.031C-34.606,300.541 -55.355,298.719 -55.355,298.719Z" style="fill:rgb(157,164,143);fill-rule:nonzero;"/>
                        <path d="M-8.672,291.882C-8.518,291.624 -8.6,291.291 -8.858,291.136C-11.005,289.846 -24.881,286.859 -29.585,285.87C-23.706,282.889 -17.616,279.873 -11.634,277.023C-10.022,277.216 2.711,278.817 10.521,281.97C10.799,282.082 11.116,281.948 11.228,281.67C11.34,281.391 11.205,281.074 10.928,280.963C4.308,278.29 -5.72,276.724 -9.822,276.163C0.704,271.188 10.787,266.796 18.648,264.105C18.932,264.008 19.083,263.699 18.986,263.415C18.888,263.123 18.58,262.98 18.296,263.077C10.332,265.803 0.103,270.266 -10.559,275.311C-7.299,269.408 1.652,259.061 1.75,258.949C1.947,258.723 1.922,258.379 1.696,258.182C1.469,257.985 1.126,258.01 0.929,258.236C0.497,258.734 -9.569,270.371 -12.162,276.072C-18.139,278.921 -24.22,281.933 -30.091,284.91C-27.999,280.928 -21.344,270.302 -18.587,265.967C-18.426,265.714 -18.501,265.378 -18.754,265.217C-19.007,265.056 -19.343,265.13 -19.504,265.384C-19.963,266.105 -30.482,282.656 -31.672,285.712C-52.372,296.252 -70.029,306.105 -70.352,306.285C-70.602,306.424 -70.699,306.733 -70.579,306.989C-70.573,307.001 -70.567,307.013 -70.561,307.024C-70.415,307.286 -70.084,307.379 -69.822,307.233C-69.499,307.053 -51.828,297.193 -31.135,286.657C-25.562,287.805 -11.37,290.895 -9.419,292.067C-9.16,292.222 -8.826,292.139 -8.672,291.882Z" style="fill:rgb(209,219,190);fill-rule:nonzero;"/>
                    </g>
                    <g>
                        <path d="M658.222,331.799C658.222,331.799 659.384,312.406 674.179,294.318C688.974,276.23 697.874,278.294 700.836,280.394C703.797,282.493 707.887,293.263 691.054,309.639C674.219,326.015 658.222,331.799 658.222,331.799Z" style="fill:rgb(157,164,143);fill-rule:nonzero;"/>
                        <path d="M690.454,310.683C690.479,310.439 690.304,310.22 690.06,310.195C688.026,309.978 676.719,312.535 672.895,313.42C676.225,309.19 679.7,304.863 683.151,300.694C684.411,300.283 694.395,297.091 701.265,296.741C701.51,296.729 701.698,296.52 701.686,296.276C701.673,296.031 701.464,295.843 701.221,295.855C695.398,296.151 687.431,298.439 684.199,299.434C690.286,292.13 696.245,285.409 701.143,280.713C701.32,280.543 701.326,280.262 701.156,280.086C700.983,279.903 700.705,279.903 700.529,280.073C695.567,284.831 689.523,291.654 683.36,299.057C683.746,293.563 686.819,282.821 686.853,282.704C686.921,282.469 686.785,282.223 686.549,282.155C686.313,282.087 686.068,282.223 686,282.459C685.851,282.976 682.395,295.058 682.434,300.173C678.986,304.339 675.516,308.661 672.191,312.884C672.372,309.215 673.648,299.055 674.2,294.896C674.232,294.653 674.062,294.43 673.819,294.398C673.576,294.365 673.353,294.536 673.321,294.779C673.229,295.471 671.127,311.349 671.297,314.022C659.586,328.947 649.894,342.317 649.716,342.562C649.578,342.751 649.613,343.013 649.79,343.161C649.798,343.168 649.807,343.175 649.816,343.181C650.014,343.325 650.292,343.28 650.435,343.081C650.612,342.836 660.313,329.456 672.019,314.537C676.543,313.471 688.118,310.881 689.966,311.078C690.21,311.103 690.428,310.927 690.454,310.683Z" style="fill:rgb(209,219,190);fill-rule:nonzero;"/>
                    </g>
                    <g>
                        <path d="M-4.067,516.623C-4.067,516.623 -22.349,492.091 -22.891,455.296C-23.432,418.501 -10.62,411.954 -4.924,411.477C0.772,410.999 16.627,419.817 12.976,456.62C9.326,493.424 -4.067,516.623 -4.067,516.623Z" style="fill:rgb(157,164,143);fill-rule:nonzero;"/>
                        <path d="M13.316,458.486C13.099,458.167 12.666,458.081 12.346,458.298C9.676,460.101 -1.343,474.655 -5.049,479.602C-5.331,471.129 -5.54,462.392 -5.615,453.87C-4.514,452.096 4.268,438.121 12.185,430.728C12.467,430.465 12.482,430.023 12.219,429.741C11.954,429.459 11.512,429.444 11.232,429.707C4.521,435.973 -2.751,446.814 -5.633,451.291C-5.716,436.318 -5.361,422.178 -4.229,411.552C-4.188,411.168 -4.466,410.824 -4.849,410.783C-5.243,410.738 -5.577,411.02 -5.618,411.403C-6.765,422.168 -7.118,436.518 -7.026,451.687C-12.137,444.68 -19.338,428.626 -19.416,428.451C-19.573,428.099 -19.987,427.941 -20.339,428.098C-20.691,428.256 -20.849,428.669 -20.692,429.021C-20.346,429.794 -12.246,447.85 -7.009,453.969C-6.934,462.484 -6.725,471.21 -6.443,479.671C-9.948,475.069 -18.722,461.54 -22.279,455.971C-22.486,455.646 -22.918,455.551 -23.244,455.758C-23.57,455.965 -23.665,456.397 -23.457,456.723C-22.866,457.65 -9.283,478.902 -6.366,481.949C-5.32,511.805 -3.424,537.741 -3.389,538.216C-3.362,538.584 -3.055,538.863 -2.692,538.863C-2.675,538.863 -2.658,538.862 -2.641,538.861C-2.256,538.833 -1.968,538.498 -1.996,538.113C-2.031,537.639 -3.929,511.682 -4.973,481.837C-0.608,475.963 10.702,461.096 13.128,459.459C13.448,459.24 13.532,458.806 13.316,458.486Z" style="fill:rgb(209,219,190);fill-rule:nonzero;"/>
                    </g>
                    <g>
                        <path d="M627.783,540.69C627.783,540.69 601.197,525.55 585.945,492.061C570.693,458.572 579.804,447.436 584.83,444.714C589.857,441.992 607.916,443.711 619.332,478.889C630.747,514.067 627.783,540.69 627.783,540.69Z" style="fill:rgb(157,164,143);fill-rule:nonzero;"/>
                        <path d="M620.391,480.462C620.064,480.256 619.633,480.351 619.427,480.678C617.704,483.4 613.447,501.152 612.035,507.17C608.378,499.522 604.683,491.602 601.197,483.825C601.494,481.759 603.934,465.434 608.222,455.487C608.375,455.133 608.212,454.721 607.857,454.569C607.502,454.417 607.091,454.581 606.939,454.934C603.304,463.366 600.99,476.213 600.146,481.47C594.065,467.787 588.72,454.691 585.495,444.504C585.378,444.136 584.986,443.932 584.618,444.048C584.239,444.165 584.046,444.557 584.162,444.925C587.429,455.246 592.86,468.533 599.028,482.392C591.536,478.023 578.501,466.205 578.359,466.076C578.074,465.816 577.632,465.838 577.372,466.123C577.112,466.409 577.134,466.85 577.419,467.11C578.046,467.68 592.707,480.971 599.959,484.476C603.443,492.246 607.133,500.156 610.785,507.793C605.728,504.984 592.265,496.109 586.774,492.434C586.454,492.22 586.02,492.306 585.805,492.626C585.59,492.947 585.676,493.381 585.997,493.595C586.91,494.207 607.876,508.228 611.77,509.849C624.702,536.78 636.84,559.778 637.063,560.199C637.235,560.525 637.629,560.658 637.961,560.512C637.977,560.505 637.992,560.498 638.007,560.489C638.348,560.309 638.478,559.887 638.297,559.545C638.075,559.125 625.927,536.108 613,509.187C614.643,502.055 619.042,483.901 620.607,481.428C620.814,481.099 620.717,480.668 620.391,480.462Z" style="fill:rgb(209,219,190);fill-rule:nonzero;"/>
                    </g>
                    <g>
                        <path d="M254.67,552.329C254.67,552.329 248.361,522.392 263.301,488.762C278.24,455.132 292.617,454.562 297.989,456.517C303.36,458.472 314.055,473.126 295.307,505.005C276.558,536.885 254.67,552.329 254.67,552.329Z" style="fill:rgb(157,164,143);fill-rule:nonzero;"/>
                        <path d="M294.832,506.842C294.769,506.461 294.412,506.202 294.03,506.264C290.85,506.781 274.743,515.372 269.304,518.309C272.601,510.499 276.076,502.48 279.582,494.712C281.325,493.563 295.159,484.559 305.446,481.168C305.812,481.047 306.012,480.652 305.891,480.286C305.769,479.919 305.374,479.72 305.009,479.841C296.289,482.715 285.141,489.506 280.647,492.362C286.851,478.735 293.104,466.047 298.587,456.875C298.785,456.543 298.677,456.115 298.346,455.917C298.007,455.711 297.586,455.827 297.388,456.158C291.832,465.45 285.494,478.328 279.216,492.137C277.514,483.633 277.71,466.038 277.713,465.847C277.718,465.461 277.409,465.145 277.023,465.139C276.637,465.134 276.321,465.443 276.316,465.829C276.306,466.676 276.087,486.464 278.275,494.215C274.772,501.977 271.302,509.985 268.01,517.785C266.757,512.138 264.466,496.176 263.573,489.629C263.521,489.247 263.169,488.979 262.787,489.031C262.404,489.083 262.137,489.435 262.189,489.817C262.337,490.906 265.755,515.895 267.125,519.885C255.553,547.428 246.398,571.768 246.231,572.213C246.101,572.558 246.263,572.941 246.593,573.093C246.609,573.1 246.624,573.107 246.64,573.112C247.001,573.248 247.403,573.065 247.539,572.703C247.706,572.258 256.869,547.898 268.437,520.366C274.863,516.864 291.365,508.111 294.254,507.642C294.636,507.582 294.894,507.223 294.832,506.842Z" style="fill:rgb(209,219,190);fill-rule:nonzero;"/>
                    </g>
                    <g>
                        <path d="M523.914,360.336C523.914,360.336 515.951,382.129 492.835,397.766C469.719,413.403 460.241,407.996 457.571,404.581C454.901,401.166 453.904,387.444 478.768,374.464C503.631,361.482 523.914,360.336 523.914,360.336Z" style="fill:rgb(157,164,143);fill-rule:nonzero;"/>
                        <path d="M479.81,373.472C479.697,373.742 479.823,374.053 480.094,374.165C482.347,375.109 496.159,376.05 500.838,376.346C495.58,380.047 490.125,383.81 484.75,387.399C483.168,387.438 470.652,387.676 462.672,385.726C462.388,385.657 462.101,385.831 462.031,386.115C461.962,386.4 462.136,386.687 462.42,386.756C469.184,388.409 479.083,388.516 483.121,388.484C473.657,394.76 464.54,400.411 457.329,404.11C457.068,404.244 456.966,404.563 457.099,404.823C457.234,405.091 457.552,405.186 457.812,405.053C465.118,401.306 474.367,395.566 483.951,389.203C481.631,395.358 474.44,406.598 474.361,406.72C474.203,406.966 474.275,407.294 474.521,407.452C474.767,407.61 475.095,407.538 475.253,407.292C475.6,406.751 483.687,394.109 485.392,388.243C490.762,384.656 496.211,380.897 501.461,377.202C499.999,381.338 495.063,392.527 493.009,397.097C492.889,397.364 493.008,397.677 493.275,397.797C493.542,397.917 493.856,397.798 493.975,397.531C494.317,396.771 502.153,379.322 502.873,376.205C521.378,363.132 537.042,351.15 537.328,350.931C537.55,350.761 537.6,350.45 537.448,350.22C537.441,350.209 537.433,350.199 537.425,350.188C537.247,349.956 536.915,349.912 536.682,350.09C536.396,350.309 520.719,362.301 502.221,375.368C496.68,375.04 482.549,374.045 480.502,373.187C480.233,373.075 479.923,373.202 479.81,373.472Z" style="fill:rgb(209,219,190);fill-rule:nonzero;"/>
                    </g>
                    <g>
                        <path d="M164.042,525.669C160.653,523.795 158.986,519.81 160.118,516.107C160.45,515.021 160.954,514.008 161.673,512.674C162.42,511.356 163.01,510.391 163.754,509.532C166.289,506.604 170.55,505.897 173.939,507.771L171.295,500.279L116.51,468.091L107.878,485.426L108.006,494.684L113.45,499.879L158.895,525.007L164.042,525.669Z" style="fill:white;fill-rule:nonzero;"/>
                        <path d="M122.235,474.911L119.887,449.669L171.287,478.204L177.391,506.19C177.391,506.19 177.291,505.354 176.402,504.862L122.235,474.911Z" style="fill:rgb(183,108,95);fill-rule:nonzero;"/>
                        <path d="M171.132,489.864L123.835,463.647L122.974,454.398L168.965,479.931L171.132,489.864ZM124.803,463.014L169.651,487.874L168.065,480.601L124.172,456.233L124.803,463.014Z" style="fill:rgb(226,168,159);fill-rule:nonzero;"/>
                        <path d="M104.979,490.913L104.152,461.674C104.493,460.293 105.045,458.858 105.853,457.397C109.766,450.32 115.961,448.672 119.888,449.669L122.236,474.911C118.309,473.914 111.028,475.428 107.115,482.506C106.307,483.967 105.755,485.402 105.414,486.783L105.97,489.119L104.979,490.913Z" style="fill:rgb(190,123,109);fill-rule:nonzero;"/>
                        <path d="M107.114,482.506C111.027,475.429 117.607,473.777 121.533,474.774C122.094,474.916 122.601,475.113 123.038,475.355C126.486,477.267 176.517,504.925 176.517,504.925C176.517,504.925 177.904,505.668 177.24,507.411C176.576,509.154 174.708,508.196 174.708,508.196L122.981,479.594C119.592,477.72 115.33,478.427 112.796,481.355C112.053,482.214 111.463,483.179 110.715,484.497C109.996,485.831 109.492,486.843 109.16,487.93C108.028,491.633 109.695,495.619 113.084,497.492L164.811,526.094C164.811,526.094 166.615,527.167 165.493,528.655C164.37,530.144 163.003,529.364 163.003,529.364C163.003,529.364 112.977,501.697 109.524,499.794C106.654,498.212 103.866,493.046 105.413,486.782C105.754,485.402 106.306,483.967 107.114,482.506Z" style="fill:rgb(139,74,61);fill-rule:nonzero;"/>
                    </g>
                    <g>
                        <path d="M540.066,452.652C536.325,453.652 532.36,451.937 530.608,448.484C530.094,447.471 529.755,446.392 529.348,444.933C528.972,443.465 528.728,442.361 528.668,441.226C528.464,437.359 531.044,433.894 534.785,432.894L527.685,429.33L465.892,444.131L471.695,462.607L478.207,469.189L485.732,469.156L535.9,455.745L540.066,452.652Z" style="fill:white;fill-rule:nonzero;"/>
                        <path d="M474.746,445.074L455.549,428.515L512.37,413.429L536.175,429.359C536.175,429.359 535.524,428.826 534.542,429.088L474.746,445.074Z" style="fill:rgb(183,108,95);fill-rule:nonzero;"/>
                        <path d="M520.344,421.938L468.086,435.849L461.052,429.782L511.894,416.284L520.344,421.938ZM468.345,434.721L517.897,421.531L511.71,417.391L463.188,430.273L468.345,434.721Z" style="fill:rgb(226,168,159);fill-rule:nonzero;"/>
                        <path d="M473.41,468.57L452.537,448.078C451.825,446.846 451.227,445.43 450.796,443.817C448.708,436.004 452.028,430.521 455.549,428.516L474.746,445.075C471.225,447.08 467.03,453.22 469.118,461.033C469.549,462.646 470.146,464.062 470.859,465.294L472.879,466.592L473.41,468.57Z" style="fill:rgb(190,123,109);fill-rule:nonzero;"/>
                        <path d="M469.118,461.032C467.029,453.219 470.624,447.467 474.145,445.462C474.648,445.176 475.149,444.966 475.633,444.837C479.443,443.824 534.669,429.056 534.669,429.056C534.669,429.056 536.184,428.63 536.914,430.346C537.644,432.062 535.634,432.667 535.634,432.667L478.531,447.931C474.79,448.931 472.21,452.396 472.414,456.263C472.474,457.398 472.718,458.502 473.094,459.97C473.501,461.43 473.84,462.508 474.354,463.521C476.107,466.974 480.071,468.689 483.812,467.689L540.915,452.424C540.915,452.424 542.959,451.945 543.182,453.797C543.405,455.649 541.88,456.035 541.88,456.035C541.88,456.035 486.651,470.793 482.844,471.816C479.679,472.666 474.088,470.878 470.858,465.293C470.147,464.061 469.549,462.645 469.118,461.032Z" style="fill:rgb(139,74,61);fill-rule:nonzero;"/>
                    </g>
                    <g>
                        <path d="M30.451,302.79C30.451,302.79 26.718,291.857 21.695,294.812C16.672,297.767 24.413,304.563 24.413,304.563C24.413,304.563 14.603,305.45 16.672,309.882C18.74,314.314 24.413,309.882 24.413,309.882C24.413,309.882 20.414,317.269 23.418,319.042C26.423,320.815 30.451,312.837 30.451,312.837C30.451,312.837 32.628,320.443 36.469,319.299C40.31,318.155 36.469,310.177 36.469,310.177C36.469,310.177 44.152,312.836 45.334,309.586C46.516,306.336 36.174,306.035 36.174,306.035C36.174,306.035 42.084,300.721 39.424,297.471C36.764,294.221 30.451,302.79 30.451,302.79Z" style="fill:rgb(216,188,156);fill-rule:nonzero;"/>
                        <circle cx="29.87" cy="307.419" r="2.71" style="fill:rgb(244,217,202);"/>
                    </g>
                    <g>
                        <path d="M440.212,341.108C440.212,341.108 451.533,343.412 451.522,337.584C451.511,331.756 441.734,335.002 441.734,335.002C441.734,335.002 445.927,326.089 441.057,325.634C436.187,325.179 437.145,332.314 437.145,332.314C437.145,332.314 432.792,325.13 429.744,326.826C426.696,328.523 431.544,336.031 431.544,336.031C431.544,336.031 423.881,334.066 422.926,337.958C421.972,341.851 430.797,342.568 430.797,342.568C430.797,342.568 424.62,347.853 426.827,350.516C429.034,353.179 434.52,344.406 434.52,344.406C434.52,344.406 436.119,352.191 440.267,351.539C444.415,350.886 440.212,341.108 440.212,341.108Z" style="fill:rgb(216,188,156);fill-rule:nonzero;"/>
                        <path d="M435.141,340.605C436.433,341.362 438.093,340.928 438.849,339.636C439.605,338.344 439.172,336.684 437.88,335.928C436.588,335.172 434.928,335.605 434.172,336.897C433.416,338.189 433.85,339.849 435.141,340.605Z" style="fill:rgb(244,217,202);fill-rule:nonzero;"/>
                    </g>
                    <g>
                        <path d="M750.574,273.833C750.574,273.833 754.071,260.719 747.236,260.323C740.401,259.927 743.52,271.62 743.52,271.62C743.52,271.62 733.362,266.077 732.487,271.756C731.611,277.435 740.046,276.813 740.046,276.813C740.046,276.813 731.315,281.413 733.091,285.107C734.867,288.801 744.012,283.642 744.012,283.642C744.012,283.642 741.169,292.49 745.667,293.883C750.165,295.276 751.626,284.976 751.626,284.976C751.626,284.976 757.39,292.591 760.668,290.19C763.945,287.788 754.043,280.739 754.043,280.739C754.043,280.739 763.285,279.411 762.811,274.5C762.336,269.59 750.574,273.833 750.574,273.833Z" style="fill:rgb(216,188,156);fill-rule:nonzero;"/>
                        <path d="M749.628,279.744C750.606,278.283 750.214,276.305 748.752,275.327C747.291,274.349 745.313,274.741 744.335,276.203C743.357,277.664 743.749,279.642 745.211,280.62C746.673,281.598 748.651,281.206 749.628,279.744Z" style="fill:rgb(244,217,202);fill-rule:nonzero;"/>
                    </g>
                    <g>
                        <path d="M122.601,301.335C122.601,301.335 130.65,305.259 131.772,300.883C132.894,296.507 124.927,297.047 124.927,297.047C124.927,297.047 129.802,291.171 126.235,289.885C122.668,288.599 122.004,294.14 122.004,294.14C122.004,294.14 120.13,287.904 117.513,288.586C114.896,289.268 117.079,295.843 117.079,295.843C117.079,295.843 111.709,292.882 110.238,295.618C108.767,298.354 115.251,300.604 115.251,300.604C115.251,300.604 109.59,303.373 110.73,305.799C111.87,308.225 117.688,302.705 117.688,302.705C117.688,302.705 117.378,308.857 120.618,309.172C123.86,309.489 122.601,301.335 122.601,301.335Z" style="fill:rgb(216,188,156);fill-rule:nonzero;"/>
                        <path d="M118.893,299.975C119.716,300.793 121.046,300.79 121.864,299.967C122.682,299.144 122.678,297.814 121.856,296.996C121.033,296.178 119.703,296.182 118.885,297.004C118.067,297.827 118.071,299.157 118.893,299.975Z" style="fill:rgb(244,217,202);fill-rule:nonzero;"/>
                    </g>
                    <g>
                        <path d="M602.533,337.403C602.533,337.403 602.141,328.457 597.76,329.559C593.379,330.661 597.655,337.405 597.655,337.405C597.655,337.405 590.165,335.925 590.737,339.672C591.309,343.42 596.495,341.361 596.495,341.361C596.495,341.361 591.909,345.983 593.757,347.957C595.605,349.931 600.342,344.876 600.342,344.876C600.342,344.876 600.302,351.008 603.409,350.996C606.516,350.984 605.399,344.211 605.399,344.211C605.399,344.211 610.533,347.865 612.121,345.705C613.709,343.545 606.082,341.066 606.082,341.066C606.082,341.066 611.637,338.403 610.368,335.405C609.099,332.407 602.533,337.403 602.533,337.403Z" style="fill:rgb(216,188,156);fill-rule:nonzero;"/>
                        <path d="M603.107,341.311C603.433,340.198 602.796,339.031 601.682,338.704C600.569,338.377 599.401,339.015 599.075,340.129C598.748,341.242 599.386,342.409 600.5,342.736C601.613,343.062 602.78,342.424 603.107,341.311Z" style="fill:rgb(244,217,202);fill-rule:nonzero;"/>
                    </g>
                    <g>
                        <path d="M139.216,431.274C139.216,431.274 140.83,443.443 146.679,441.41C152.528,439.377 145.877,430.684 145.877,430.684C145.877,430.684 156.283,431.802 155.05,426.754C153.817,421.706 146.984,425.143 146.984,425.143C146.984,425.143 152.689,418.278 149.927,415.806C147.165,413.333 141.307,420.807 141.307,420.807C141.307,420.807 140.622,412.429 136.382,412.821C132.141,413.213 134.483,422.325 134.483,422.325C134.483,422.325 127.032,417.955 125.124,421.095C123.216,424.236 133.929,426.702 133.929,426.702C133.929,426.702 126.665,431.008 128.76,434.949C130.854,438.888 139.216,431.274 139.216,431.274Z" style="fill:rgb(255,242,228);fill-rule:nonzero;"/>
                        <path d="M137.962,426.008C137.65,427.567 138.662,429.084 140.222,429.396C141.782,429.708 143.298,428.696 143.61,427.136C143.922,425.576 142.91,424.06 141.35,423.748C139.79,423.436 138.273,424.448 137.962,426.008Z" style="fill:rgb(244,217,202);fill-rule:nonzero;"/>
                    </g>
                    <g>
                        <path d="M715.662,393.844C715.662,393.844 725.287,401.463 728.074,395.933C730.861,390.404 720.036,388.786 720.036,388.786C720.036,388.786 728.289,382.35 723.892,379.581C719.494,376.811 716.977,384.035 716.977,384.035C716.977,384.035 716.3,375.135 712.596,375.28C708.892,375.425 709.883,384.869 709.883,384.869C709.883,384.869 703.563,379.327 700.789,382.558C698.015,385.789 706.037,390.706 706.037,390.706C706.037,390.706 697.644,392.75 698.458,396.334C699.272,399.917 708.684,394.236 708.684,394.236C708.684,394.236 706.462,402.383 710.707,403.756C714.951,405.131 715.662,393.844 715.662,393.844Z" style="fill:rgb(255,242,228);fill-rule:nonzero;"/>
                        <path d="M711.097,390.934C711.958,392.271 713.74,392.657 715.077,391.796C716.414,390.935 716.8,389.153 715.939,387.816C715.078,386.479 713.296,386.093 711.959,386.954C710.621,387.815 710.235,389.596 711.097,390.934Z" style="fill:rgb(244,217,202);fill-rule:nonzero;"/>
                    </g>
                    <g>
                        <path d="M547.079,477.164C547.079,477.164 542.269,468.099 538.278,471.396C534.287,474.693 542.032,479.567 542.032,479.567C542.032,479.567 533.552,481.723 535.989,485.32C538.426,488.917 542.779,484.233 542.779,484.233C542.779,484.233 540.309,491.274 543.193,492.407C546.077,493.54 548.49,485.976 548.49,485.976C548.49,485.976 551.468,492.341 554.676,490.799C557.885,489.256 553.395,482.798 553.395,482.798C553.395,482.798 560.507,484.051 561.087,481.034C561.667,478.017 552.554,479.206 552.554,479.206C552.554,479.206 556.991,473.715 554.202,471.238C551.413,468.761 547.079,477.164 547.079,477.164Z" style="fill:rgb(255,242,228);fill-rule:nonzero;"/>
                        <path d="M549.597,480.925C549.387,479.612 548.152,478.718 546.839,478.929C545.526,479.139 544.632,480.374 544.843,481.687C545.053,483 546.288,483.894 547.601,483.683C548.914,483.473 549.807,482.238 549.597,480.925Z" style="fill:rgb(244,217,202);fill-rule:nonzero;"/>
                    </g>
                    <g>
                        <path d="M249.261,364.358C249.261,364.358 249.021,354.623 244.235,355.73C239.449,356.837 243.957,364.258 243.957,364.258C243.957,364.258 235.845,362.492 236.388,366.579C236.931,370.666 242.613,368.535 242.613,368.535C242.613,368.535 237.531,373.465 239.499,375.65C241.467,377.835 246.722,372.437 246.722,372.437C246.722,372.437 246.551,379.103 249.929,379.154C253.307,379.205 252.234,371.819 252.234,371.819C252.234,371.819 257.74,375.898 259.512,373.583C261.284,371.268 253.043,368.413 253.043,368.413C253.043,368.413 259.138,365.633 257.82,362.348C256.503,359.063 249.261,364.358 249.261,364.358Z" style="fill:rgb(216,188,156);fill-rule:nonzero;"/>
                        <path d="M249.803,368.618C250.181,367.415 249.512,366.132 248.308,365.754C247.104,365.376 245.822,366.045 245.444,367.249C245.066,368.453 245.735,369.735 246.939,370.113C248.143,370.491 249.425,369.822 249.803,368.618Z" style="fill:rgb(244,217,202);fill-rule:nonzero;"/>
                    </g>
                    <g>
                        <path d="M85.32,334.71C85.32,334.71 64.339,357.55 80.507,361.3C95.328,364.737 85.32,334.71 85.32,334.71Z" style="fill:rgb(209,219,190);fill-rule:nonzero;"/>
                        <path d="M97.487,329.039C97.487,329.039 113.454,354.7 120.99,342.95C128.526,331.2 97.487,329.039 97.487,329.039Z" style="fill:rgb(209,219,190);fill-rule:nonzero;"/>
                        <path d="M98.084,356.443C98.084,356.443 75.556,378.754 93.642,381.765C109.746,384.446 98.084,356.443 98.084,356.443Z" style="fill:rgb(209,219,190);fill-rule:nonzero;"/>
                        <path d="M112.395,351.363C112.395,351.363 123.504,377.189 133.597,367.695C143.691,358.201 112.395,351.363 112.395,351.363Z" style="fill:rgb(209,219,190);fill-rule:nonzero;"/>
                        <path d="M112.164,366.135C112.164,366.135 107.254,399.71 123.537,394.528C139.384,389.485 112.164,366.135 112.164,366.135Z" style="fill:rgb(209,219,190);fill-rule:nonzero;"/>
                        <g>
                            <path d="M120.088,386.43C119.918,386.365 119.777,386.227 119.714,386.041C103.744,338.825 70.218,308.109 69.881,307.803C69.621,307.568 69.601,307.167 69.836,306.907C70.071,306.647 70.471,306.626 70.733,306.863C71.072,307.17 104.842,338.109 120.917,385.634C121.03,385.967 120.852,386.327 120.519,386.439C120.373,386.487 120.221,386.481 120.088,386.43Z" style="fill:rgb(78,98,95);fill-rule:nonzero;"/>
                            <path d="M82.187,354.05C81.891,353.936 81.72,353.616 81.8,353.3C81.844,353.131 86.114,336.23 83.896,322.646C83.858,322.411 83.953,322.175 84.144,322.033C84.335,321.892 84.571,321.868 84.803,321.974C85.804,322.467 109.39,334.104 114.947,338.672C115.217,338.895 115.256,339.295 115.034,339.566C114.811,339.836 114.411,339.878 114.14,339.653C109.362,335.724 90.128,326.044 85.329,323.653C87.163,337.271 83.073,353.449 83.03,353.616C82.942,353.956 82.597,354.16 82.257,354.074C82.234,354.067 82.21,354.059 82.187,354.05Z" style="fill:rgb(78,98,95);fill-rule:nonzero;"/>
                            <path d="M94.299,373.884C93.99,373.765 93.821,373.424 93.921,373.103C94.497,371.26 99.545,349.889 98.752,343.07C98.724,342.828 98.837,342.591 99.043,342.46C99.249,342.331 99.508,342.329 99.72,342.458C100.69,343.065 123.543,357.366 128.526,362.527C128.769,362.78 128.763,363.181 128.51,363.425C128.256,363.669 127.853,363.66 127.612,363.409C123.334,358.976 104.741,347.128 100.099,344.197C100.305,352.27 95.756,371.487 95.135,373.48C95.031,373.815 94.674,374.002 94.34,373.898C94.326,373.894 94.313,373.889 94.299,373.884Z" style="fill:rgb(78,98,95);fill-rule:nonzero;"/>
                        </g>
                    </g>
                    <g>
                        <path d="M422.571,427.846C422.571,427.846 444.946,406.37 429.045,401.612C414.47,397.249 422.571,427.846 422.571,427.846Z" style="fill:rgb(209,219,190);fill-rule:nonzero;"/>
                        <path d="M410.072,432.741C410.072,432.741 395.749,406.127 387.49,417.381C379.231,428.635 410.072,432.741 410.072,432.741Z" style="fill:rgb(209,219,190);fill-rule:nonzero;"/>
                        <path d="M411.199,405.353C411.199,405.353 435.085,384.502 417.223,380.36C401.319,376.673 411.199,405.353 411.199,405.353Z" style="fill:rgb(209,219,190);fill-rule:nonzero;"/>
                        <path d="M396.597,409.524C396.597,409.524 387.133,383.051 376.463,391.892C365.792,400.733 396.597,409.524 396.597,409.524Z" style="fill:rgb(209,219,190);fill-rule:nonzero;"/>
                        <path d="M397.756,394.795C397.756,394.795 404.766,361.595 388.19,365.743C372.056,369.781 397.756,394.795 397.756,394.795Z" style="fill:rgb(209,219,190);fill-rule:nonzero;"/>
                        <g>
                            <path d="M391.122,374.043C391.288,374.119 391.42,374.265 391.471,374.455C404.442,422.581 435.972,455.343 436.289,455.669C436.533,455.92 436.528,456.321 436.277,456.566C436.026,456.811 435.626,456.807 435.379,456.553C435.06,456.226 403.301,423.225 390.244,374.785C390.152,374.446 390.353,374.097 390.692,374.007C390.841,373.968 390.992,373.984 391.122,374.043Z" style="fill:rgb(78,98,95);fill-rule:nonzero;"/>
                            <path d="M426.914,408.74C427.203,408.872 427.353,409.203 427.253,409.513C427.199,409.679 421.875,426.279 423.235,439.975C423.259,440.212 423.148,440.441 422.949,440.571C422.75,440.699 422.512,440.709 422.288,440.589C421.32,440.034 398.512,426.938 393.253,422.03C392.997,421.79 392.983,421.388 393.222,421.132C393.462,420.876 393.863,420.86 394.12,421.101C398.641,425.322 417.229,436.192 421.869,438.88C420.895,425.173 425.993,409.285 426.046,409.121C426.155,408.788 426.513,408.605 426.847,408.713C426.868,408.721 426.891,408.73 426.914,408.74Z" style="fill:rgb(78,98,95);fill-rule:nonzero;"/>
                            <path d="M416.072,388.185C416.373,388.323 416.52,388.674 416.4,388.988C415.71,390.791 409.328,411.803 409.692,418.658C409.705,418.901 409.577,419.13 409.363,419.248C409.149,419.364 408.891,419.35 408.687,419.208C407.757,418.541 385.848,402.833 381.199,397.369C380.972,397.102 381.004,396.702 381.272,396.474C381.541,396.247 381.943,396.281 382.167,396.547C386.158,401.24 403.97,414.233 408.418,417.45C408.719,409.38 414.467,390.487 415.212,388.537C415.337,388.21 415.704,388.045 416.032,388.17C416.046,388.173 416.058,388.179 416.072,388.185Z" style="fill:rgb(78,98,95);fill-rule:nonzero;"/>
                        </g>
                    </g>
                    <g>
                        <path d="M662.798,379.695C662.798,379.695 634.433,367.154 636.071,383.67C637.571,398.81 662.798,379.695 662.798,379.695Z" style="fill:rgb(209,219,190);fill-rule:nonzero;"/>
                        <path d="M672.073,389.398C672.073,389.398 652.894,412.756 666.441,416.122C679.988,419.489 672.073,389.398 672.073,389.398Z" style="fill:rgb(209,219,190);fill-rule:nonzero;"/>
                        <path d="M646.31,398.758C646.31,398.758 617.949,384.582 620.902,402.678C623.531,418.79 646.31,398.758 646.31,398.758Z" style="fill:rgb(209,219,190);fill-rule:nonzero;"/>
                        <path d="M655.715,410.681C655.715,410.681 634.821,429.49 647.051,436.004C659.282,442.517 655.715,410.681 655.715,410.681Z" style="fill:rgb(209,219,190);fill-rule:nonzero;"/>
                        <path d="M641.649,415.203C641.649,415.203 608.274,421.328 618.408,435.087C628.271,448.478 641.649,415.203 641.649,415.203Z" style="fill:rgb(209,219,190);fill-rule:nonzero;"/>
                        <g>
                            <path d="M624.972,429.222C624.979,429.04 625.064,428.862 625.221,428.743C664.814,398.465 683.145,356.854 683.327,356.437C683.466,356.115 683.84,355.968 684.162,356.107C684.484,356.246 684.632,356.618 684.491,356.942C684.309,357.362 665.844,399.275 625.993,429.751C625.714,429.965 625.315,429.912 625.103,429.633C625.009,429.51 624.966,429.365 624.972,429.222Z" style="fill:rgb(78,98,95);fill-rule:nonzero;"/>
                            <path d="M643.475,382.934C643.488,382.617 643.736,382.352 644.061,382.327C644.235,382.314 661.613,380.934 673.766,374.475C673.977,374.363 674.23,374.378 674.426,374.513C674.62,374.648 674.72,374.865 674.694,375.118C674.548,376.224 671.096,402.298 668.554,409.026C668.429,409.354 668.063,409.519 667.735,409.396C667.407,409.271 667.239,408.906 667.365,408.577C669.552,402.791 672.548,381.468 673.272,376.155C660.963,382.262 644.328,383.581 644.156,383.594C643.806,383.62 643.501,383.358 643.474,383.009C643.474,382.984 643.474,382.959 643.475,382.934Z" style="fill:rgb(78,98,95);fill-rule:nonzero;"/>
                            <path d="M628.578,400.771C628.591,400.44 628.86,400.17 629.196,400.163C631.126,400.117 652.987,398.039 659.191,395.099C659.411,394.995 659.672,395.026 659.862,395.179C660.051,395.333 660.135,395.577 660.081,395.819C659.817,396.933 653.607,423.166 650.318,429.542C650.157,429.853 649.775,429.976 649.462,429.815C649.149,429.652 649.028,429.268 649.189,428.959C652.014,423.485 657.269,402.072 658.555,396.736C650.975,399.522 631.315,401.381 629.228,401.433C628.878,401.441 628.586,401.164 628.577,400.814C628.576,400.799 628.577,400.786 628.578,400.771Z" style="fill:rgb(78,98,95);fill-rule:nonzero;"/>
                        </g>
                    </g>
                    <g>
                        <path d="M197.617,392.56C197.617,392.56 162.956,381.899 158.004,380.908C153.052,379.918 153.3,380.908 153.3,380.908L160.767,357.264L168.155,333.868C168.155,333.868 168.648,331.392 175.458,332.878C182.267,334.364 203.312,344.298 212.472,345.52L205.084,368.916L197.617,392.56Z" style="fill:rgb(190,123,109);fill-rule:nonzero;"/>
                        <path d="M153.3,380.909L160.767,357.265L168.155,333.869C168.155,333.869 165.679,337.83 164.318,340.801C162.956,343.772 151.334,380.909 151.334,380.909C151.334,380.909 147.75,387.594 154.199,393.783C154.199,393.783 148.627,390.781 153.3,380.909" style="fill:rgb(183,108,95);fill-rule:nonzero;"/>
                        <path d="M197.617,392.56C197.617,392.56 162.956,381.899 158.004,380.908C153.052,379.918 153.3,380.908 153.3,380.908C153.3,380.908 152.381,382.291 151.567,386.107C150.365,391.74 154.199,393.782 154.199,393.782L189.538,413.849L190.56,410.385C190.56,410.385 159.117,393.906 156.889,392.559C154.661,391.213 153.67,389.078 154.475,385.611C155.28,382.145 157.909,382.417 157.909,382.417C162.797,383.686 196.278,393.703 196.278,393.703C196.278,393.703 197.268,393.665 197.617,392.56Z" style="fill:rgb(183,108,95);fill-rule:nonzero;"/>
                        <path d="M190.561,410.386C190.561,410.386 159.118,393.907 156.89,392.56C154.662,391.214 153.671,389.079 154.476,385.612C155.281,382.146 157.91,382.418 157.91,382.418C162.798,383.687 196.279,393.704 196.279,393.704C196.279,393.704 197.269,393.664 197.618,392.56L206.015,365.969L196.689,397.963L195.822,399.477L195.265,400.715L194.646,402.386L177.13,395.114L193.842,405.184L193.285,406.949L188.643,405.184L192.914,407.276L191.614,410.386L190.561,410.386Z" style="fill:white;fill-rule:nonzero;"/>
                        <path d="M172.415,341.909C171.967,341.909 171.535,341.839 171.13,341.711L161.743,371.438C163.721,371.949 165.185,373.74 165.185,375.878C165.185,376.397 165.095,376.893 164.937,377.358C171.719,379.268 182.337,382.466 190.013,384.799C190.557,383.067 192.174,381.811 194.085,381.811C194.576,381.811 195.045,381.898 195.484,382.05L204.507,353.476C202.791,352.923 201.549,351.315 201.549,349.415C201.549,348.937 201.631,348.48 201.776,348.051C197.305,346.542 192.356,344.602 187.493,342.694C183.485,341.121 179.377,339.51 176.573,338.595C176.139,340.492 174.444,341.909 172.415,341.909Z" style="fill:rgb(203,149,138);fill-rule:nonzero;"/>
                    </g>
                    <g>
                        <path d="M224.304,474.82C224.304,474.82 202.766,439.234 199.283,434.606C195.8,429.978 195.256,431.015 195.256,431.015L219.697,416.471L243.882,402.08C243.882,402.08 246.194,400.337 250.89,406.806C255.586,413.276 266.021,437.845 272.93,445.884L248.745,460.275L224.304,474.82Z" style="fill:rgb(241,193,183);fill-rule:nonzero;"/>
                        <path d="M195.256,431.015L219.697,416.471L243.882,402.08C243.882,402.08 238.739,403.582 235.305,405.086C231.871,406.59 193.573,429.514 193.573,429.514C193.573,429.514 185.402,432.502 186.199,442.724C186.198,442.724 183.719,435.9 195.256,431.015" style="fill:rgb(206,130,126);fill-rule:nonzero;"/>
                        <path d="M224.304,474.82C224.304,474.82 202.766,439.234 199.283,434.606C195.8,429.978 195.256,431.015 195.256,431.015C195.256,431.015 193.413,431.498 189.804,434.143C184.475,438.048 186.199,442.723 186.199,442.723L201.138,486.879L204.657,484.694C204.657,484.694 190.316,446.583 189.436,443.73C188.556,440.877 189.338,438.292 192.673,435.939C196.008,433.586 198.051,435.826 198.051,435.826C201.267,440.643 222.286,474.777 222.286,474.777C222.286,474.777 223.163,475.499 224.304,474.82Z" style="fill:rgb(226,168,159);fill-rule:nonzero;"/>
                        <path d="M204.656,484.695C204.656,484.695 190.315,446.584 189.435,443.731C188.555,440.878 189.337,438.293 192.672,435.94C196.007,433.587 198.05,435.827 198.05,435.827C201.266,440.644 222.285,474.778 222.285,474.778C222.285,474.778 223.163,475.499 224.305,474.82L251.792,458.463L219.386,478.736L217.488,479.371L216.066,480.006L214.261,480.964L204.815,461.367L211.436,482.745L209.612,483.831L206.985,478.777L209.045,483.828L205.558,485.499L204.656,484.695Z" style="fill:white;fill-rule:nonzero;"/>
                        <path d="M241.392,412.216C241.008,411.874 240.692,411.485 240.443,411.066L209.714,429.351C211.018,431.298 210.903,433.949 209.272,435.779C208.876,436.223 208.42,436.58 207.929,436.857C212.277,443.669 218.928,454.512 223.718,462.369C225.505,461.301 227.849,461.46 229.485,462.919C229.905,463.294 230.241,463.726 230.5,464.192L260.037,446.616C258.99,444.833 259.154,442.508 260.604,440.881C260.969,440.472 261.388,440.143 261.839,439.886C259.163,435.181 256.407,429.743 253.7,424.396C251.469,419.99 249.181,415.474 247.48,412.551C245.661,413.845 243.129,413.765 241.392,412.216Z" style="fill:rgb(226,168,159);fill-rule:nonzero;"/>
                    </g>
                    <g>
                        <path d="M549.105,390.512C549.105,390.512 574.864,371.125 578.16,368.078C581.456,365.031 580.614,364.692 580.614,364.692L593.737,382.403L606.723,399.928C606.723,399.928 608.248,401.575 603.626,405.701C599.004,409.827 580.873,419.792 575.214,425.748L562.228,408.223L549.105,390.512Z" style="fill:rgb(241,193,183);fill-rule:nonzero;"/>
                        <path d="M580.615,364.691L593.738,382.402L606.724,399.927C606.724,399.927 605.164,396.078 603.736,393.548C602.308,391.018 581.64,363.276 581.64,363.276C581.64,363.276 578.698,357.209 570.878,358.621C570.879,358.621 575.947,356.177 580.615,364.691" style="fill:rgb(206,130,126);fill-rule:nonzero;"/>
                        <path d="M549.105,390.512C549.105,390.512 574.864,371.125 578.16,368.078C581.456,365.031 580.614,364.692 580.614,364.692C580.614,364.692 580.098,363.309 577.776,360.732C574.349,356.928 570.878,358.622 570.878,358.622L537.995,373.59L539.955,376.133C539.955,376.133 568.222,362.099 570.354,361.197C572.486,360.296 574.539,360.697 576.614,363.084C578.689,365.472 577.121,367.222 577.121,367.222C573.658,370.078 548.979,388.951 548.979,388.951C548.979,388.951 548.493,389.685 549.105,390.512Z" style="fill:rgb(226,168,159);fill-rule:nonzero;"/>
                        <path d="M539.956,376.132C539.956,376.132 568.223,362.098 570.355,361.196C572.487,360.295 574.54,360.696 576.615,363.083C578.69,365.471 577.122,367.221 577.122,367.221C573.659,370.077 548.98,388.95 548.98,388.95C548.98,388.95 548.492,389.684 549.105,390.511L563.864,410.429L545.701,387.024L545.063,385.61L544.462,384.563L543.582,383.246L557.956,374.432L541.988,381.207L541.008,379.885L544.7,377.464L540.966,379.447L539.405,376.889L539.956,376.132Z" style="fill:white;fill-rule:nonzero;"/>
                        <path d="M598.713,398.799C598.947,398.476 599.222,398.202 599.526,397.977L583.026,375.71C581.626,376.867 579.573,376.986 578.035,375.871C577.662,375.6 577.351,375.277 577.099,374.92C572.186,378.805 564.344,384.78 558.659,389.087C559.622,390.382 559.682,392.201 558.685,393.577C558.429,393.93 558.121,394.223 557.783,394.459L573.643,415.863C574.936,414.916 576.742,414.861 578.11,415.853C578.454,416.102 578.74,416.4 578.974,416.728C582.393,414.297 586.371,411.747 590.282,409.242C593.505,407.177 596.808,405.061 598.93,403.521C597.79,402.218 597.655,400.259 598.713,398.799Z" style="fill:rgb(226,168,159);fill-rule:nonzero;"/>
                    </g>
                    <g>
                        <path d="M358.702,434.225C358.279,431.614 358.525,429.158 359.1,426.973C359.886,423.988 361.285,421.509 362.429,419.836L361.716,417.843L321.803,416.901L317.563,433.502L319.6,438.438L357.335,435.954L358.702,434.225Z" style="fill:white;fill-rule:nonzero;"/>
                        <path d="M318.257,439.796L277.105,410.307C275.703,406.52 275.865,402.943 276.668,399.895C278.154,394.248 281.836,390.415 281.836,390.415L322.988,419.904C322.988,419.904 319.833,423.954 318.347,429.601C317.543,432.649 316.855,436.009 318.257,439.796" style="fill:rgb(139,74,61);fill-rule:nonzero;"/>
                        <g>
                            <path d="M285.158,405.415C286.314,401.025 288.766,397.645 289.932,396.216L289.026,395.567C287.776,397.096 285.293,400.552 284.087,405.133C283.226,408.402 283.256,412.027 284.122,415.335L285.601,416.395C284.397,412.932 284.227,408.953 285.158,405.415Z" style="fill:rgb(190,123,109);fill-rule:nonzero;"/>
                            <path d="M282.402,403.819C283.629,399.155 286.315,395.638 287.373,394.383L286.467,393.734C285.304,395.114 282.606,398.692 281.331,403.537C280.454,406.869 280.442,410.141 281.27,413.292L282.75,414.353C281.573,410.98 281.45,407.439 282.402,403.819Z" style="fill:rgb(190,123,109);fill-rule:nonzero;"/>
                            <path d="M311.044,424.017C312.21,419.589 314.691,416.193 315.845,414.786L314.939,414.136C313.698,415.649 311.188,419.121 309.974,423.734C309.119,426.984 309.144,430.583 309.995,433.875L311.467,434.93C310.282,431.482 310.119,427.533 311.044,424.017Z" style="fill:rgb(190,123,109);fill-rule:nonzero;"/>
                            <path d="M308.287,422.42C309.525,417.719 312.246,414.181 313.286,412.952L312.38,412.303C311.232,413.66 308.501,417.257 307.217,422.138C306.345,425.449 306.329,428.699 307.141,431.83L308.615,432.886C307.459,429.535 307.341,426.017 308.287,422.42Z" style="fill:rgb(190,123,109);fill-rule:nonzero;"/>
                        </g>
                        <path d="M322.987,419.904L345.969,418.086L366.162,416.488L325.01,386.999L281.835,390.415L322.987,419.904Z" style="fill:rgb(190,123,109);fill-rule:nonzero;"/>
                        <path d="M319.515,440.258L342.497,438.44L361.295,436.953C362.895,435.748 362.022,433.895 362.022,433.895L341.829,435.493L319.908,437.227L319.907,437.228C319.484,434.617 319.73,432.161 320.305,429.976C321.091,426.991 322.49,424.512 323.634,422.839L323.653,422.852L346.635,421.034L365.433,419.547C367.033,418.342 366.16,416.489 366.16,416.489L345.967,418.087L322.985,419.905C322.985,419.905 319.304,423.738 317.817,429.385C317.015,432.433 316.852,436.01 318.254,439.797C318.257,439.796 318.862,440.31 319.515,440.258Z" style="fill:rgb(127,66,56);fill-rule:nonzero;"/>
                    </g>
                    <g>
                        <path d="M663.533,494.514C662.676,492.012 661.301,489.961 659.764,488.305C657.664,486.042 655.262,484.515 653.465,483.579L653.155,481.485L687.916,461.848L699.477,474.493L700.006,479.807L665.552,495.396L663.533,494.514Z" style="fill:white;fill-rule:nonzero;"/>
                        <path d="M701.832,480.371L724.234,434.97C723.686,430.969 721.858,427.891 719.714,425.58C715.743,421.3 710.689,419.653 710.689,419.653L688.287,465.054C688.287,465.054 692.978,467.14 696.95,471.42C699.094,473.731 701.284,476.37 701.832,480.371" style="fill:rgb(139,74,61);fill-rule:nonzero;"/>
                        <g>
                            <path d="M714.827,434.451C711.739,431.123 707.984,429.298 706.282,428.587L706.775,427.587C708.598,428.347 712.417,430.225 715.638,433.697C717.937,436.175 719.619,439.386 720.414,442.713L719.609,444.344C719.039,440.722 717.315,437.133 714.827,434.451Z" style="fill:rgb(190,123,109);fill-rule:nonzero;"/>
                            <path d="M716.505,431.744C713.225,428.209 709.199,426.372 707.675,425.763L708.168,424.764C709.844,425.433 713.91,427.318 717.317,430.99C719.661,433.516 721.213,436.396 721.967,439.566L721.161,441.199C720.61,437.67 719.051,434.488 716.505,431.744Z" style="fill:rgb(190,123,109);fill-rule:nonzero;"/>
                            <path d="M700.759,463.055C697.644,459.699 693.856,457.873 692.175,457.175L692.668,456.175C694.475,456.925 698.325,458.805 701.57,462.302C703.856,464.765 705.53,467.952 706.33,471.256L705.529,472.88C704.949,469.28 703.232,465.72 700.759,463.055Z" style="fill:rgb(190,123,109);fill-rule:nonzero;"/>
                            <path d="M702.438,460.348C699.131,456.784 695.064,454.946 693.568,454.352L694.061,453.353C695.713,454.009 699.816,455.895 703.249,459.595C705.578,462.104 707.124,464.964 707.883,468.108L707.081,469.734C706.521,466.233 704.967,463.074 702.438,460.348Z" style="fill:rgb(190,123,109);fill-rule:nonzero;"/>
                        </g>
                        <path d="M688.287,465.055L667.159,474.279L648.596,482.385L670.998,436.984L710.69,419.654L688.287,465.055Z" style="fill:rgb(190,123,109);fill-rule:nonzero;"/>
                        <path d="M700.94,481.372L679.812,490.597L662.53,498.143C660.551,497.834 660.448,495.789 660.448,495.789L679.012,487.684L699.164,478.885L699.166,478.885C698.309,476.383 696.934,474.332 695.397,472.676C693.297,470.413 690.895,468.886 689.098,467.95L689.087,467.97L667.959,477.195L650.677,484.741C648.698,484.432 648.595,482.387 648.595,482.387L667.159,474.282L688.287,465.057C688.287,465.057 693.34,466.704 697.312,470.984C699.456,473.295 701.284,476.373 701.832,480.374C701.832,480.371 701.54,481.11 700.94,481.372Z" style="fill:rgb(127,66,56);fill-rule:nonzero;"/>
                    </g>
                    <g>
                        <path d="M45.864,369.184L34.79,420.218C34.603,421.081 33.462,421.281 32.992,420.533L8.576,381.668C8.363,381.329 8.308,380.915 8.425,380.533L20.594,340.667L28.292,349.354L45.864,369.184Z" style="fill:rgb(206,130,126);fill-rule:nonzero;"/>
                        <path d="M13.812,380.393L22.819,350.885L32.798,362.146L23.305,395.505L13.812,380.393Z" style="fill:rgb(226,168,159);fill-rule:nonzero;"/>
                        <path d="M65.691,365.57L48.119,345.74L40.421,337.053C29.152,332.587 20.594,340.667 20.594,340.667L28.292,349.354L45.864,369.185C45.864,369.185 50.118,364.801 56.63,364.063C59.314,363.759 62.381,364.074 65.691,365.57Z" style="fill:rgb(226,168,159);fill-rule:nonzero;"/>
                        <path d="M24.353,341.055C26.313,339.823 29.577,338.263 33.542,338.263C35.343,338.263 37.152,338.585 38.928,339.221L58.583,361.403C58.548,361.402 58.514,361.402 58.48,361.402C57.771,361.402 57.052,361.443 56.344,361.523C51.796,362.039 48.233,364.095 46.133,365.634L24.353,341.055Z" style="fill:rgb(241,193,183);fill-rule:nonzero;"/>
                        <path d="M36.786,420.218C36.786,420.218 41.893,421.24 42.745,420.995C43.597,420.75 45.864,420.625 45.864,420.625L48.283,400.516L48.283,420.995C48.283,420.995 49.348,420.43 50.306,420.537C51.265,420.644 52.649,420.995 52.649,420.995L54.459,383.903L57.121,421.033C57.121,421.033 60.316,420.89 61.7,421.033C63.085,421.176 69.261,420.004 70.007,420.004C70.753,420.004 68.729,406.905 68.729,406.905C68.729,406.905 70.965,419.897 71.604,419.897C72.243,419.897 76.077,418.406 76.077,418.406L64.789,366.117L59.89,364.946L51.051,366.965L46.472,370.164L37.633,412.229L36.036,419.045L36.786,420.218Z" style="fill:white;fill-rule:nonzero;"/>
                        <path d="M45.864,369.184L34.79,420.218L34.988,420.533C35.458,421.281 36.599,421.081 36.786,420.218L47.568,370.663C47.568,370.663 51.457,366.656 57.409,365.982C59.134,365.787 61.032,365.871 63.058,366.414L63.718,366.607L75.114,418.514C75.301,419.377 76.442,419.578 76.912,418.829L77.11,418.514L66.037,367.48L65.692,365.57C62.381,364.074 59.315,363.758 56.631,364.062C50.118,364.8 45.864,369.184 45.864,369.184" style="fill:rgb(241,193,183);fill-rule:nonzero;"/>
                    </g>
                    <g>
                        <path d="M741.571,351.371L777.369,326.211C777.975,325.785 777.758,324.839 777.027,324.72L739.073,318.519C738.742,318.465 738.405,318.557 738.147,318.772L711.328,341.142L720.54,344.258L741.571,351.371Z" style="fill:rgb(206,130,126);fill-rule:nonzero;"/>
                        <path d="M739.794,322.977L719.943,339.535L731.885,343.574L754.552,325.388L739.794,322.977Z" style="fill:rgb(226,168,159);fill-rule:nonzero;"/>
                        <path d="M745.234,367.856L724.204,360.743L714.992,357.627C707.877,350.38 711.329,341.143 711.329,341.143L720.541,344.259L741.571,351.372C741.571,351.372 739.571,356.083 741.121,361.351C741.76,363.522 743.002,365.787 745.234,367.856Z" style="fill:rgb(226,168,159);fill-rule:nonzero;"/>
                        <path d="M712.853,343.918C712.54,345.832 712.398,348.86 713.688,351.921C714.274,353.311 715.111,354.603 716.18,355.767L739.703,363.723C739.691,363.697 739.68,363.67 739.669,363.644C739.438,363.096 739.236,362.528 739.067,361.955C737.985,358.276 738.413,354.856 738.918,352.733L712.853,343.918Z" style="fill:rgb(241,193,183);fill-rule:nonzero;"/>
                        <path d="M778.02,327.753C778.02,327.753 780.472,331.363 780.56,332.101C780.648,332.839 781.29,334.629 781.29,334.629L766.551,343.041L782.362,336.376C782.362,336.376 782.273,337.382 782.667,338.087C783.061,338.792 783.783,339.747 783.783,339.747L755.734,353.217L785.268,343.188C785.268,343.188 786.198,345.701 786.758,346.724C787.319,347.746 788.425,352.897 788.667,353.472C788.91,354.048 778.138,356.748 778.138,356.748C778.138,356.748 788.897,354.246 789.105,354.74C789.313,355.233 789.41,358.679 789.41,358.679L745.365,366.981L742.866,363.58L741.548,356.098L742.528,351.521L772.129,331.006L776.871,327.554L778.02,327.753Z" style="fill:white;fill-rule:nonzero;"/>
                        <path d="M741.571,351.371L777.369,326.211L777.677,326.261C778.408,326.38 778.624,327.326 778.019,327.752L743.268,352.205C743.268,352.205 741.44,356.511 742.857,361.327C743.268,362.722 743.951,364.16 745.029,365.548L745.393,365.995L789.179,357.9C789.906,357.764 790.432,358.579 790.008,359.186L789.829,359.442L746.822,367.501L745.235,367.856C743.002,365.787 741.761,363.522 741.122,361.351C739.571,356.083 741.571,351.371 741.571,351.371" style="fill:rgb(241,193,183);fill-rule:nonzero;"/>
                    </g>
                    <g>
                        <path d="M374.58,502.844L373.401,450.635C373.381,449.752 374.443,449.29 375.075,449.907L407.91,481.978C408.196,482.257 408.347,482.647 408.323,483.047L405.823,524.654L396.306,518.01L374.58,502.844Z" style="fill:rgb(206,130,126);fill-rule:nonzero;"/>
                        <path d="M403.118,484.443L401.268,515.24L388.93,506.628L390.351,471.973L403.118,484.443Z" style="fill:rgb(226,168,159);fill-rule:nonzero;"/>
                        <path d="M371.46,451.102C371.46,451.102 366.255,451.303 365.485,451.741C364.715,452.179 362.539,452.831 362.539,452.831L364.895,472.948L360.101,453.038C360.101,453.038 359.198,453.836 358.241,453.957C357.284,454.078 355.856,454.06 355.856,454.06L362.778,490.546L351.498,455.07C351.498,455.07 348.425,455.957 347.046,456.142C345.667,456.327 339.936,458.912 339.211,459.086C338.486,459.26 343.52,471.522 343.52,471.522C343.52,471.522 338.305,459.414 337.683,459.564C337.062,459.714 333.683,462.06 333.683,462.06L356.897,510.254L361.934,510.246L370.055,506.214L373.758,502.032L372.505,459.066L372.463,452.066L371.46,451.102Z" style="fill:white;fill-rule:nonzero;"/>
                        <path d="M374.58,502.844L373.401,450.635L373.135,450.375C372.503,449.758 371.441,450.219 371.461,451.103L372.578,501.805C372.578,501.805 369.736,506.611 364.106,508.66C362.475,509.254 360.61,509.616 358.513,509.562L357.826,509.529L334.596,461.731C334.212,460.935 333.056,461.008 332.774,461.845L332.655,462.198L355.367,509.222L356.15,510.998C359.719,511.678 362.774,511.267 365.312,510.343C371.47,508.102 374.58,502.844 374.58,502.844" style="fill:rgb(241,193,183);fill-rule:nonzero;"/>
                    </g>
                </g>
            </g>
        </g>
    </g>
</svg>
